<?xml version="1.0" encoding="UTF-8"?>
<!--
  - Copyright (c) 2022-2023 ChilliBits. All rights reserved.
  -->

<svg xmlns="http://www.w3.org/2000/svg" xmlns:xlink="http://www.w3.org/1999/xlink" width="40px" height="40px" viewBox="0 0 40 40" version="1.1">
<g id="surface1">
<path style=" stroke:none;fill-rule:nonzero;fill:rgb(80.47%,80.47%,80.47%);fill-opacity:1;" d="M 17.910156 1.578125 C 16.777344 2.234375 15.851562 2.78125 15.855469 2.792969 C 15.859375 2.824219 19.910156 9.859375 19.921875 9.859375 C 19.933594 9.859375 24.007812 2.800781 24.03125 2.738281 C 24.039062 2.71875 23.503906 2.398438 22.035156 1.550781 C 20.933594 0.910156 20.019531 0.386719 20.003906 0.386719 C 19.984375 0.382812 19.042969 0.921875 17.910156 1.578125 Z M 17.910156 1.578125 "/>
<path style=" stroke:none;fill-rule:nonzero;fill:rgb(80.47%,80.47%,80.47%);fill-opacity:1;" d="M 22.207031 6.507812 C 21.054688 8.511719 20.113281 10.160156 20.113281 10.179688 C 20.113281 10.210938 24.507812 17.851562 24.527344 17.851562 C 24.539062 17.851562 32.578125 7.675781 32.578125 7.660156 C 32.578125 7.652344 30.773438 6.605469 24.691406 3.089844 L 24.304688 2.863281 Z M 22.207031 6.507812 "/>
<path style=" stroke:none;fill-rule:nonzero;fill:rgb(80.47%,80.47%,80.47%);fill-opacity:1;" d="M 9.289062 6.570312 L 3.03125 10.195312 L 3.023438 12.652344 L 3.019531 15.113281 L 7.351562 19.625 C 9.734375 22.109375 11.691406 24.136719 11.703125 24.136719 C 11.710938 24.132812 13.527344 20.988281 15.734375 17.152344 L 19.753906 10.175781 L 17.671875 6.558594 C 16.527344 4.566406 15.582031 2.941406 15.570312 2.941406 C 15.558594 2.941406 12.734375 4.574219 9.289062 6.570312 Z M 9.289062 6.570312 "/>
<path style=" stroke:none;fill-rule:nonzero;fill:rgb(80.47%,80.47%,80.47%);fill-opacity:1;" d="M 28.78125 12.96875 C 26.542969 15.800781 24.707031 18.132812 24.703125 18.144531 C 24.699219 18.179688 31.316406 29.671875 31.339844 29.671875 C 31.351562 29.671875 32.625 27.472656 34.171875 24.789062 L 36.980469 19.910156 L 36.976562 15.054688 L 36.96875 10.199219 L 34.929688 9.015625 C 33.808594 8.367188 32.882812 7.832031 32.871094 7.828125 C 32.859375 7.820312 31.019531 10.136719 28.78125 12.96875 Z M 28.78125 12.96875 "/>
<path style=" stroke:none;fill-rule:nonzero;fill:rgb(80.47%,80.47%,80.47%);fill-opacity:1;" d="M 19.882812 10.542969 C 19.863281 10.578125 18.058594 13.710938 15.878906 17.496094 L 11.914062 24.382812 L 12.09375 24.566406 C 12.191406 24.667969 13.113281 25.625 14.136719 26.695312 C 15.164062 27.765625 16.011719 28.636719 16.023438 28.625 C 16.058594 28.589844 24.304688 18.148438 24.3125 18.128906 C 24.316406 18.113281 20.425781 11.320312 19.96875 10.554688 L 19.925781 10.476562 Z M 19.882812 10.542969 "/>
<path style=" stroke:none;fill-rule:nonzero;fill:rgb(80.47%,80.47%,80.47%);fill-opacity:1;" d="M 3.023438 22.675781 L 3.03125 29.804688 L 5.039062 30.96875 C 6.144531 31.609375 7.058594 32.136719 7.070312 32.144531 C 7.089844 32.152344 7.859375 30.835938 9.320312 28.296875 L 11.542969 24.433594 L 11.453125 24.34375 C 11.40625 24.292969 9.535156 22.34375 7.300781 20.011719 C 5.0625 17.679688 3.1875 15.71875 3.128906 15.660156 L 3.019531 15.550781 Z M 3.023438 22.675781 "/>
<path style=" stroke:none;fill-rule:nonzero;fill:rgb(80.47%,80.47%,80.47%);fill-opacity:1;" d="M 20.363281 23.621094 C 18.097656 26.492188 16.238281 28.851562 16.234375 28.859375 C 16.226562 28.890625 24.1875 37.179688 24.222656 37.171875 C 24.261719 37.164062 28.378906 34.785156 28.425781 34.742188 C 28.460938 34.710938 31.160156 30.03125 31.160156 30.003906 C 31.160156 29.992188 25.371094 19.921875 24.578125 18.554688 L 24.488281 18.402344 Z M 20.363281 23.621094 "/>
<path style=" stroke:none;fill-rule:nonzero;fill:rgb(80.47%,80.47%,80.47%);fill-opacity:1;" d="M 34.28125 25.195312 C 32.800781 27.761719 31.574219 29.898438 31.554688 29.9375 L 31.515625 30.011719 L 32.148438 31.109375 C 32.496094 31.714844 32.785156 32.210938 32.789062 32.214844 C 32.792969 32.222656 36.941406 29.824219 36.964844 29.800781 C 36.972656 29.792969 36.976562 27.703125 36.976562 25.15625 L 36.96875 20.523438 Z M 34.28125 25.195312 "/>
<path style=" stroke:none;fill-rule:nonzero;fill:rgb(80.47%,80.47%,80.47%);fill-opacity:1;" d="M 11.742188 24.6875 C 11.734375 24.699219 10.742188 26.417969 9.539062 28.507812 C 7.867188 31.414062 7.363281 32.308594 7.382812 32.320312 C 8.035156 32.703125 11.308594 34.597656 11.3125 34.59375 C 11.320312 34.582031 15.773438 28.945312 15.792969 28.917969 C 15.816406 28.890625 15.597656 28.652344 14.027344 27.019531 C 13.039062 25.988281 12.128906 25.039062 11.996094 24.90625 C 11.828125 24.730469 11.757812 24.667969 11.742188 24.6875 Z M 11.742188 24.6875 "/>
<path style=" stroke:none;fill-rule:nonzero;fill:rgb(80.47%,80.47%,80.47%);fill-opacity:1;" d="M 15.875 29.304688 C 14.464844 31.078125 11.578125 34.746094 11.585938 34.753906 C 11.605469 34.773438 19.984375 39.621094 20 39.621094 C 20.007812 39.621094 20.882812 39.117188 21.941406 38.503906 C 23.003906 37.890625 23.886719 37.378906 23.90625 37.367188 C 23.9375 37.351562 23.351562 36.734375 19.996094 33.238281 C 17.828125 30.980469 16.046875 29.128906 16.039062 29.125 C 16.03125 29.121094 15.957031 29.203125 15.875 29.304688 Z M 15.875 29.304688 "/>
<path style=" stroke:none;fill-rule:nonzero;fill:rgb(80.47%,80.47%,80.47%);fill-opacity:1;" d="M 30.171875 32.335938 C 28.800781 34.710938 28.949219 34.449219 28.992188 34.421875 C 29.015625 34.410156 29.8125 33.949219 30.769531 33.394531 C 31.945312 32.710938 32.511719 32.375 32.507812 32.355469 C 32.503906 32.316406 31.359375 30.320312 31.339844 30.320312 C 31.335938 30.320312 30.808594 31.226562 30.171875 32.335938 Z M 30.171875 32.335938 "/>
</g>
</svg>
