<?xml version="1.0" encoding="UTF-8"?>
<!--
  - Copyright (c) 2022-2025 ChilliBits. All rights reserved.
  -->

<svg version="1.1" xmlns="http://www.w3.org/2000/svg" width="440" height="440">
<path d="M0 0 C30.36 0 60.72 0 92 0 C96.95 8.58 101.9 17.16 107 26 C110.02042312 31.23051766 110.02042312 31.23051766 113.04101562 36.4609375 C118.04640525 45.12982108 123.03977678 53.80518769 128 62.5 C137.2975574 78.79465587 146.68177751 95.03935485 156.125 111.25 C156.97167236 112.71010498 156.97167236 112.71010498 157.83544922 114.19970703 C160.7709826 119.2470744 163.75894042 124.25227157 166.8359375 129.21484375 C167.75802002 130.71966309 167.75802002 130.71966309 168.69873047 132.25488281 C169.8725961 134.16603406 171.06108838 136.06830172 172.26611328 137.95996094 C172.7867334 138.81235352 173.30735352 139.66474609 173.84375 140.54296875 C174.54274414 141.6570813 174.54274414 141.6570813 175.25585938 142.79370117 C176 145 176 145 175.30322266 147.48144531 C174.0268732 149.94806595 172.71955063 152.3638308 171.3046875 154.75390625 C170.76207275 155.67606934 170.21945801 156.59823242 169.66040039 157.54833984 C169.07121826 158.5430127 168.48203613 159.53768555 167.875 160.5625 C162.5423014 169.6321881 157.2709109 178.7334318 152.0625 187.875 C150.71261354 190.24240091 149.36228233 192.60954782 148.01171875 194.9765625 C147.67804291 195.56138901 147.34436707 196.14621552 147.00057983 196.74876404 C138.11237803 212.31907798 129.11240415 227.82445332 120.06469727 243.30249023 C115.83972004 250.53871524 111.66128513 257.80033958 107.52075195 265.08520508 C106.60521442 266.69458429 105.652993 268.28340937 104.67358398 269.85473633 C103.2374597 272.55372818 102.33478257 274.93968915 101.39086914 277.82299805 C99.2608926 283.50180663 97.04091051 288.39070532 92 292 C81.83999383 295.03025915 70.64561138 293.87545884 60.18603516 293.30462646 C56.21903798 293.10886768 52.2497491 293.02320529 48.27929688 292.92773438 C40.51324427 292.72501322 32.75858101 292.40167537 25 292 C25.82202835 288.37037486 27.20218354 285.63423768 29.0703125 282.3984375 C29.71170166 281.28194824 30.35309082 280.16545898 31.01391602 279.01513672 C31.71751366 277.80170155 32.42121097 276.58832417 33.125 275.375 C33.85191144 274.11369191 34.57838628 272.85213211 35.30444336 271.59033203 C37.17155662 268.34800635 39.04423493 265.10893174 40.91827393 261.87060547 C42.57276421 259.00953126 44.2218471 256.14534923 45.87109375 253.28125 C48.95690708 247.92433004 52.04809774 242.5705375 55.14111328 237.21777344 C58.26324605 231.81329355 61.38141204 226.40652588 64.5 221 C65.74998122 218.8333225 66.99998121 216.66665583 68.25 214.5 C68.86875 213.4275 69.4875 212.355 70.125 211.25 C72 208 73.875 204.75 75.75 201.5 C76.36955566 200.4260498 76.98911133 199.35209961 77.62744141 198.24560547 C78.86911527 196.0934787 80.11097522 193.94145927 81.35302734 191.78955078 C84.26166823 186.74969023 87.16851898 181.70882508 90.06854248 176.66400146 C91.09275665 174.88250422 92.11757651 173.10135678 93.14257812 171.3203125 C94.42633375 169.08923375 95.70895939 166.85750427 96.99023438 164.625 C97.57353516 163.61179687 98.15683594 162.59859375 98.7578125 161.5546875 C99.30598633 160.59916992 99.85416016 159.64365234 100.41894531 158.65917969 C101.86333612 156.22985532 103.40578934 153.9078751 104.9921875 151.5703125 C106.44388168 149.23504338 106.98898864 148.3044881 107.08984375 145.515625 C105.4744512 141.78690527 103.58075728 138.27496077 101.5625 134.75 C101.11148926 133.95062012 100.66047852 133.15124023 100.19580078 132.32763672 C96.91688151 126.54016731 93.55521332 120.80246295 90.16308594 115.08081055 C86.14108496 108.28240547 82.22436993 101.42461351 78.3125 94.5625 C74.1934 87.33786337 70.07210263 80.11472365 65.91796875 72.91015625 C65.26546143 71.77626465 64.6129541 70.64237305 63.94067383 69.47412109 C62.65946281 67.26306905 61.36652836 65.05876376 60.0612793 62.86181641 C57.43814655 58.42266867 54.9324636 54.15486181 53.1640625 49.30078125 C51.65329367 45.35689449 50.45117668 42.65619018 47 40 C41.71985089 39.12421074 36.40317412 39.40296086 31.06958008 39.49975586 C22.70597484 39.49049657 22.70597484 39.49049657 19.08203125 36.97265625 C17.43022506 34.19776771 16.18806893 31.45533464 15.04541016 28.43945312 C12.70085897 22.96846867 9.46758933 17.90048833 6.5 12.75 C5.25465718 10.5396935 4.01465354 8.32636604 2.78125 6.109375 C2.24564453 5.14999023 1.71003906 4.19060547 1.15820312 3.20214844 C0 1 0 1 0 0 Z " fill="#03071E" transform="translate(178,147)"/>
<path d="M0 0 C2.80212574 -0.04549373 5.58049537 0.07178297 8.37890625 0.20629883 C9.86954692 0.23058174 11.36029219 0.24906971 12.85107422 0.26203918 C16.75348298 0.31141115 20.64948256 0.43880966 24.54937744 0.58319092 C28.53724427 0.71679478 32.52615982 0.77567769 36.515625 0.84106445 C44.32712455 0.98000743 52.13336378 1.20149009 59.94140625 1.47583008 C58.55713263 5.00647219 57.03160799 8.27938987 55.17578125 11.58911133 C54.622854 12.57709717 54.06992676 13.56508301 53.50024414 14.58300781 C52.90332764 15.64076416 52.30641113 16.69852051 51.69140625 17.78833008 C51.06806396 18.89700439 50.44472168 20.00567871 49.80249023 21.14794922 C44.46409835 30.61271211 39.0033016 40.00392025 33.5078125 49.37817383 C29.78805793 55.72629486 26.11230234 62.09936515 22.44140625 68.47583008 C18.19310683 75.85526322 13.92535343 83.22227832 9.61962891 90.56835938 C3.54879121 100.92624726 -2.37932075 111.35287813 -8.20214844 121.85229492 C-11.82512697 128.36016094 -15.58578162 134.71830731 -19.703125 140.92504883 C-21.32220431 143.97190414 -21.99305099 146.01080306 -22.05859375 149.47583008 C-20.87285824 151.99626284 -19.71244286 154.06076378 -18.18359375 156.35083008 C-17.33378266 157.69191495 -16.48618956 159.03440744 -15.640625 160.37817383 C-15.20572754 161.06121582 -14.77083008 161.74425781 -14.32275391 162.44799805 C-12.39384038 165.54215713 -10.63277646 168.72195349 -8.87109375 171.91333008 C-4.40736165 179.93172081 0.22439935 187.84950182 4.8581543 195.77050781 C7.91139742 200.99160721 10.95237648 206.2177089 13.94140625 211.47583008 C17.60660489 217.91769436 21.33339286 224.32305244 25.06640625 230.72583008 C25.65292969 231.73258789 26.23945313 232.7393457 26.84375 233.77661133 C30.12250502 239.39416226 33.44544699 244.97632959 36.87060547 250.50610352 C37.94140625 252.47583008 37.94140625 252.47583008 37.94140625 254.47583008 C39.01455078 254.37371216 39.01455078 254.37371216 40.109375 254.26953125 C60.44838816 252.58064327 60.44838816 252.58064327 66.1015625 256.87817383 C67.77913573 259.72005866 69.09663852 262.47420164 70.20654297 265.58081055 C71.45971832 268.81242087 73.29241391 271.69617758 75.06640625 274.66333008 C75.72793888 275.82717629 76.3868506 276.99251663 77.04296875 278.15942383 C79.25225145 282.01884978 81.5601326 285.81016709 83.91015625 289.58520508 C84.94140625 291.47583008 84.94140625 291.47583008 84.94140625 293.47583008 C54.58140625 293.47583008 24.22140625 293.47583008 -7.05859375 293.47583008 C-11.01859375 286.54583008 -14.97859375 279.61583008 -19.05859375 272.47583008 C-21.36423591 268.51308212 -23.67365644 264.5536068 -25.99609375 260.60083008 C-30.58535669 252.76338882 -35.10674885 244.89210352 -39.55859375 236.97583008 C-44.51993314 228.15558756 -49.57800557 219.39670679 -54.68969727 210.6628418 C-60.2403511 201.17738264 -65.73464021 191.66003787 -71.21875 182.13598633 C-73.55051811 178.0872164 -75.88843237 174.04213882 -78.2348175 170.00183105 C-79.63258799 167.59475127 -81.02839314 165.18653445 -82.42410278 162.77825928 C-83.4142329 161.07169987 -84.40716226 159.36676553 -85.40014648 157.66186523 C-85.99641846 156.6323877 -86.59269043 155.60291016 -87.20703125 154.54223633 C-87.73474121 153.63417236 -88.26245117 152.7261084 -88.80615234 151.79052734 C-90.05859375 149.47583008 -90.05859375 149.47583008 -91.05859375 146.47583008 C-90.03320312 144.16113281 -90.03320312 144.16113281 -88.40234375 141.40942383 C-87.79970703 140.38010742 -87.19707031 139.35079102 -86.57617188 138.2902832 C-85.91037109 137.17588867 -85.24457031 136.06149414 -84.55859375 134.91333008 C-83.86936481 133.7427401 -83.18123018 132.57150519 -82.49414062 131.3996582 C-81.06413913 128.96272008 -79.62944031 126.52864165 -78.19140625 124.09643555 C-74.936153 118.58187628 -71.75080014 113.02703293 -68.55859375 107.47583008 C-67.30892784 105.3089707 -66.0589266 103.14230468 -64.80859375 100.97583008 C-64.18984375 99.90333008 -63.57109375 98.83083008 -62.93359375 97.72583008 C-57.30859375 87.97583008 -57.30859375 87.97583008 -55.43383789 84.72631836 C-54.18294895 82.55806743 -52.93213523 80.38977311 -51.68139648 78.22143555 C-48.5706104 72.82865093 -45.45855137 67.43660915 -42.34375 62.04614258 C-41.10277514 59.89775674 -39.86188976 57.74931922 -38.62109375 55.60083008 C-38.00999756 54.5429126 -37.39890137 53.48499512 -36.76928711 52.39501953 C-33.44309954 46.63041068 -30.13186773 40.85764889 -26.83984375 35.07348633 C-26.48655502 34.45322571 -26.1332663 33.83296509 -25.76927185 33.19390869 C-24.07255519 30.21478566 -22.37806186 27.23447193 -20.68774414 24.25170898 C-19.48402543 22.13638609 -18.26368636 20.03038635 -17.02270508 17.93670654 C-15.02446546 14.5314065 -15.02446546 14.5314065 -13.48472595 11.04385376 C-10.20552733 4.48179798 -7.85008818 0.70852624 0 0 Z " fill="#9D0208" transform="translate(179.05859375,0.524169921875)"/>
</svg>
